{
    "asset" : {
        "copyright" : "Weronika Zak",
        "generator" : "Khronos glTF Blender I/O v1.7.33",
        "version" : "2.0"
    },
    "scene" : 0,
    "scenes" : [
        {
            "name" : "Scene",
            "nodes" : [
                0
            ]
        }
    ],
    "nodes" : [
        {
            "mesh" : 0,
            "name" : "earring",
            "scale" : [
                -0.009411473758518696,
                0.08273512125015259,
                0.01223574485629797
            ],
            "translation" : [
                -0.6557444930076599,
                1.4999514818191528,
                -0.002705989172682166
            ]
        }
    ],
    "materials" : [
        {
            "doubleSided" : true,
            "name" : "earring",
            "pbrMetallicRoughness" : {
                "baseColorFactor" : [
                    1,
                    0.4286904036998749,
                    0.008023224771022797,
                    1
                ],
                "metallicFactor" : 0,
                "roughnessFactor" : 0.5
            }
        }
    ],
    "meshes" : [
        {
            "name" : "Cube.001",
            "primitives" : [
                {
                    "attributes" : {
                        "POSITION" : 0,
                        "NORMAL" : 1,
                        "TEXCOORD_0" : 2
                    },
                    "indices" : 3,
                    "material" : 0
                }
            ]
        }
    ],
    "accessors" : [
        {
            "bufferView" : 0,
            "componentType" : 5126,
            "count" : 240,
            "max" : [
                5.300758361816406,
                1.873326301574707,
                1
            ],
            "min" : [
                -5.247349739074707,
                -0.5514042973518372,
                -1
            ],
            "type" : "VEC3"
        },
        {
            "bufferView" : 1,
            "componentType" : 5126,
            "count" : 240,
            "type" : "VEC3"
        },
        {
            "bufferView" : 2,
            "componentType" : 5126,
            "count" : 240,
            "type" : "VEC2"
        },
        {
            "bufferView" : 3,
            "componentType" : 5123,
            "count" : 402,
            "type" : "SCALAR"
        }
    ],
    "bufferViews" : [
        {
            "buffer" : 0,
            "byteLength" : 2880,
            "byteOffset" : 0
        },
        {
            "buffer" : 0,
            "byteLength" : 2880,
            "byteOffset" : 2880
        },
        {
            "buffer" : 0,
            "byteLength" : 1920,
            "byteOffset" : 5760
        },
        {
            "buffer" : 0,
            "byteLength" : 804,
            "byteOffset" : 7680
        }
    ],
    "buffers" : [
        {
            "byteLength" : 8484,
            "uri" : "model.bin"
        }
    ]
}
