{
    "asset" : {
        "copyright" : "Weronika Zak",
        "generator" : "Khronos glTF Blender I/O v1.7.33",
        "version" : "2.0"
    },
    "scene" : 0,
    "scenes" : [
        {
            "name" : "Scene",
            "nodes" : [
                0
            ]
        }
    ],
    "nodes" : [
        {
            "mesh" : 0,
            "name" : "horns",
            "rotation" : [
                0,
                0,
                -0.3999219834804535,
                0.9165492057800293
            ],
            "scale" : [
                -0.07689166069030762,
                -0.07689166069030762,
                -0.07689166069030762
            ],
            "translation" : [
                0.4031270742416382,
                2.2553319931030273,
                0
            ]
        }
    ],
    "materials" : [
        {
            "doubleSided" : true,
            "name" : "horns_top",
            "pbrMetallicRoughness" : {
                "baseColorFactor" : [
                    0.5394798517227173,
                    0.03820427507162094,
                    0.04817185923457146,
                    1
                ],
                "metallicFactor" : 0,
                "roughnessFactor" : 0.5
            }
        },
        {
            "doubleSided" : true,
            "name" : "horns_bottom",
            "pbrMetallicRoughness" : {
                "baseColorFactor" : [
                    0.012982151471078396,
                    0.0033889368642121553,
                    0.003835082985460758,
                    1
                ],
                "metallicFactor" : 0,
                "roughnessFactor" : 0.5
            }
        }
    ],
    "meshes" : [
        {
            "name" : "Cylinder.002",
            "primitives" : [
                {
                    "attributes" : {
                        "POSITION" : 0,
                        "NORMAL" : 1,
                        "TEXCOORD_0" : 2
                    },
                    "indices" : 3,
                    "material" : 0
                },
                {
                    "attributes" : {
                        "POSITION" : 4,
                        "NORMAL" : 5,
                        "TEXCOORD_0" : 6
                    },
                    "indices" : 7,
                    "material" : 1
                }
            ]
        }
    ],
    "accessors" : [
        {
            "bufferView" : 0,
            "componentType" : 5126,
            "count" : 220,
            "max" : [
                9.197355270385742,
                7.856479167938232,
                1.0000005960464478
            ],
            "min" : [
                -0.2592465579509735,
                -2.006075382232666,
                -1.172181487083435
            ],
            "type" : "VEC3"
        },
        {
            "bufferView" : 1,
            "componentType" : 5126,
            "count" : 220,
            "type" : "VEC3"
        },
        {
            "bufferView" : 2,
            "componentType" : 5126,
            "count" : 220,
            "type" : "VEC2"
        },
        {
            "bufferView" : 3,
            "componentType" : 5123,
            "count" : 348,
            "type" : "SCALAR"
        },
        {
            "bufferView" : 4,
            "componentType" : 5126,
            "count" : 48,
            "max" : [
                5.4824042320251465,
                7.810279846191406,
                1.0000005960464478
            ],
            "min" : [
                -0.2592465579509735,
                1.7523839473724365,
                -1.0120956897735596
            ],
            "type" : "VEC3"
        },
        {
            "bufferView" : 5,
            "componentType" : 5126,
            "count" : 48,
            "type" : "VEC3"
        },
        {
            "bufferView" : 6,
            "componentType" : 5126,
            "count" : 48,
            "type" : "VEC2"
        },
        {
            "bufferView" : 7,
            "componentType" : 5123,
            "count" : 72,
            "type" : "SCALAR"
        }
    ],
    "bufferViews" : [
        {
            "buffer" : 0,
            "byteLength" : 2640,
            "byteOffset" : 0
        },
        {
            "buffer" : 0,
            "byteLength" : 2640,
            "byteOffset" : 2640
        },
        {
            "buffer" : 0,
            "byteLength" : 1760,
            "byteOffset" : 5280
        },
        {
            "buffer" : 0,
            "byteLength" : 696,
            "byteOffset" : 7040
        },
        {
            "buffer" : 0,
            "byteLength" : 576,
            "byteOffset" : 7736
        },
        {
            "buffer" : 0,
            "byteLength" : 576,
            "byteOffset" : 8312
        },
        {
            "buffer" : 0,
            "byteLength" : 384,
            "byteOffset" : 8888
        },
        {
            "buffer" : 0,
            "byteLength" : 144,
            "byteOffset" : 9272
        }
    ],
    "buffers" : [
        {
            "byteLength" : 9416,
            "uri" : "model.bin"
        }
    ]
}
