{
    "asset" : {
        "copyright" : "Weronika Zak",
        "generator" : "Khronos glTF Blender I/O v1.7.33",
        "version" : "2.0"
    },
    "scene" : 0,
    "scenes" : [
        {
            "name" : "Scene",
            "nodes" : [
                0
            ]
        }
    ],
    "nodes" : [
        {
            "mesh" : 0,
            "name" : "hat",
            "rotation" : [
                -0.18874022364616394,
                0,
                0,
                0.9820270538330078
            ],
            "scale" : [
                0.2505364418029785,
                0.3012668490409851,
                0.2137364000082016
            ],
            "translation" : [
                0,
                2.6197967529296875,
                -0.1450188159942627
            ]
        }
    ],
    "materials" : [
        {
            "doubleSided" : true,
            "name" : "hat_pink",
            "pbrMetallicRoughness" : {
                "baseColorFactor" : [
                    0.8387993574142456,
                    0.038204316049814224,
                    0.304987370967865,
                    1
                ],
                "metallicFactor" : 0,
                "roughnessFactor" : 0.5
            }
        },
        {
            "doubleSided" : true,
            "name" : "hat_blue",
            "pbrMetallicRoughness" : {
                "baseColorFactor" : [
                    0.2345505654811859,
                    0.5972021818161011,
                    0.6938719153404236,
                    1
                ],
                "metallicFactor" : 0,
                "roughnessFactor" : 0.5
            }
        }
    ],
    "meshes" : [
        {
            "name" : "Cone.001",
            "primitives" : [
                {
                    "attributes" : {
                        "POSITION" : 0,
                        "NORMAL" : 1,
                        "TEXCOORD_0" : 2
                    },
                    "indices" : 3,
                    "material" : 0
                },
                {
                    "attributes" : {
                        "POSITION" : 4,
                        "NORMAL" : 5,
                        "TEXCOORD_0" : 6
                    },
                    "indices" : 7,
                    "material" : 1
                }
            ]
        }
    ],
    "accessors" : [
        {
            "bufferView" : 0,
            "componentType" : 5126,
            "count" : 456,
            "max" : [
                0.8299410939216614,
                0.9029189348220825,
                0.8458112478256226
            ],
            "min" : [
                -0.8299411535263062,
                -1.086345911026001,
                -0.8361192345619202
            ],
            "type" : "VEC3"
        },
        {
            "bufferView" : 1,
            "componentType" : 5126,
            "count" : 456,
            "type" : "VEC3"
        },
        {
            "bufferView" : 2,
            "componentType" : 5126,
            "count" : 456,
            "type" : "VEC2"
        },
        {
            "bufferView" : 3,
            "componentType" : 5123,
            "count" : 684,
            "type" : "SCALAR"
        },
        {
            "bufferView" : 4,
            "componentType" : 5126,
            "count" : 384,
            "max" : [
                0.7319619655609131,
                0.7901141047477722,
                0.7506747245788574
            ],
            "min" : [
                -0.7377254962921143,
                -0.8686455488204956,
                -0.7423692941665649
            ],
            "type" : "VEC3"
        },
        {
            "bufferView" : 5,
            "componentType" : 5126,
            "count" : 384,
            "type" : "VEC3"
        },
        {
            "bufferView" : 6,
            "componentType" : 5126,
            "count" : 384,
            "type" : "VEC2"
        },
        {
            "bufferView" : 7,
            "componentType" : 5123,
            "count" : 576,
            "type" : "SCALAR"
        }
    ],
    "bufferViews" : [
        {
            "buffer" : 0,
            "byteLength" : 5472,
            "byteOffset" : 0
        },
        {
            "buffer" : 0,
            "byteLength" : 5472,
            "byteOffset" : 5472
        },
        {
            "buffer" : 0,
            "byteLength" : 3648,
            "byteOffset" : 10944
        },
        {
            "buffer" : 0,
            "byteLength" : 1368,
            "byteOffset" : 14592
        },
        {
            "buffer" : 0,
            "byteLength" : 4608,
            "byteOffset" : 15960
        },
        {
            "buffer" : 0,
            "byteLength" : 4608,
            "byteOffset" : 20568
        },
        {
            "buffer" : 0,
            "byteLength" : 3072,
            "byteOffset" : 25176
        },
        {
            "buffer" : 0,
            "byteLength" : 1152,
            "byteOffset" : 28248
        }
    ],
    "buffers" : [
        {
            "byteLength" : 29400,
            "uri" : "model.bin"
        }
    ]
}
