{
    "asset" : {
        "copyright" : "Weronika Zak",
        "generator" : "Khronos glTF Blender I/O v1.7.33",
        "version" : "2.0"
    },
    "scene" : 0,
    "scenes" : [
        {
            "name" : "Scene",
            "nodes" : [
                0
            ]
        }
    ],
    "nodes" : [
        {
            "mesh" : 0,
            "name" : "eyes_wide",
            "scale" : [
                0.02354428730905056,
                0.02354428730905056,
                0.02354428730905056
            ],
            "translation" : [
                0.22363318502902985,
                2.007397413253784,
                0.5231558680534363
            ]
        }
    ],
    "materials" : [
        {
            "doubleSided" : true,
            "name" : "eyes_white",
            "pbrMetallicRoughness" : {
                "baseColorFactor" : [
                    0.800000011920929,
                    0.800000011920929,
                    0.800000011920929,
                    1
                ],
                "metallicFactor" : 0,
                "roughnessFactor" : 0.5
            }
        },
        {
            "doubleSided" : true,
            "name" : "lens",
            "pbrMetallicRoughness" : {
                "baseColorFactor" : [
                    0.005901032593101263,
                    0.004396369215101004,
                    0.0029526902362704277,
                    1
                ],
                "metallicFactor" : 0,
                "roughnessFactor" : 0.5
            }
        }
    ],
    "meshes" : [
        {
            "name" : "Sphere.010",
            "primitives" : [
                {
                    "attributes" : {
                        "POSITION" : 0,
                        "NORMAL" : 1,
                        "TEXCOORD_0" : 2
                    },
                    "indices" : 3,
                    "material" : 0
                },
                {
                    "attributes" : {
                        "POSITION" : 4,
                        "NORMAL" : 5,
                        "TEXCOORD_0" : 6
                    },
                    "indices" : 7,
                    "material" : 1
                }
            ]
        }
    ],
    "accessors" : [
        {
            "bufferView" : 0,
            "componentType" : 5126,
            "count" : 1752,
            "max" : [
                4.825929641723633,
                8.029151916503906,
                8.178092002868652
            ],
            "min" : [
                -23.82274055480957,
                -6.8349456787109375,
                -3.4309253692626953
            ],
            "type" : "VEC3"
        },
        {
            "bufferView" : 1,
            "componentType" : 5126,
            "count" : 1752,
            "type" : "VEC3"
        },
        {
            "bufferView" : 2,
            "componentType" : 5126,
            "count" : 1752,
            "type" : "VEC2"
        },
        {
            "bufferView" : 3,
            "componentType" : 5123,
            "count" : 2520,
            "type" : "SCALAR"
        },
        {
            "bufferView" : 4,
            "componentType" : 5126,
            "count" : 264,
            "max" : [
                2.086876392364502,
                4.75837516784668,
                8.265582084655762
            ],
            "min" : [
                -21.08368682861328,
                -4.072050094604492,
                3.747115135192871
            ],
            "type" : "VEC3"
        },
        {
            "bufferView" : 5,
            "componentType" : 5126,
            "count" : 264,
            "type" : "VEC3"
        },
        {
            "bufferView" : 6,
            "componentType" : 5126,
            "count" : 264,
            "type" : "VEC2"
        },
        {
            "bufferView" : 7,
            "componentType" : 5123,
            "count" : 360,
            "type" : "SCALAR"
        }
    ],
    "bufferViews" : [
        {
            "buffer" : 0,
            "byteLength" : 21024,
            "byteOffset" : 0
        },
        {
            "buffer" : 0,
            "byteLength" : 21024,
            "byteOffset" : 21024
        },
        {
            "buffer" : 0,
            "byteLength" : 14016,
            "byteOffset" : 42048
        },
        {
            "buffer" : 0,
            "byteLength" : 5040,
            "byteOffset" : 56064
        },
        {
            "buffer" : 0,
            "byteLength" : 3168,
            "byteOffset" : 61104
        },
        {
            "buffer" : 0,
            "byteLength" : 3168,
            "byteOffset" : 64272
        },
        {
            "buffer" : 0,
            "byteLength" : 2112,
            "byteOffset" : 67440
        },
        {
            "buffer" : 0,
            "byteLength" : 720,
            "byteOffset" : 69552
        }
    ],
    "buffers" : [
        {
            "byteLength" : 70272,
            "uri" : "model.bin"
        }
    ]
}
