{
    "asset" : {
        "copyright" : "Weronika Zak",
        "generator" : "Khronos glTF Blender I/O v1.7.33",
        "version" : "2.0"
    },
    "scene" : 0,
    "scenes" : [
        {
            "name" : "Scene",
            "nodes" : [
                0
            ]
        }
    ],
    "nodes" : [
        {
            "mesh" : 0,
            "name" : "dress",
            "rotation" : [
                0.6726942658424377,
                0,
                0,
                0.7399205565452576
            ],
            "scale" : [
                0.23567527532577515,
                1,
                1
            ],
            "translation" : [
                0.2941739559173584,
                -0.2614879012107849,
                0.48784878849983215
            ]
        }
    ],
    "materials" : [
        {
            "doubleSided" : true,
            "name" : "dress",
            "pbrMetallicRoughness" : {
                "baseColorFactor" : [
                    0.37123775482177734,
                    0.8148466944694519,
                    0.9386858940124512,
                    1
                ],
                "metallicFactor" : 0,
                "roughnessFactor" : 0.5
            }
        }
    ],
    "meshes" : [
        {
            "name" : "Plane.003",
            "primitives" : [
                {
                    "attributes" : {
                        "POSITION" : 0,
                        "NORMAL" : 1,
                        "TEXCOORD_0" : 2
                    },
                    "indices" : 3,
                    "material" : 0
                }
            ]
        }
    ],
    "accessors" : [
        {
            "bufferView" : 0,
            "componentType" : 5126,
            "count" : 1984,
            "max" : [
                0.6936749815940857,
                0.04242696985602379,
                0.9618182182312012
            ],
            "min" : [
                -3.1901097297668457,
                -0.824668288230896,
                -1.2294644117355347
            ],
            "type" : "VEC3"
        },
        {
            "bufferView" : 1,
            "componentType" : 5126,
            "count" : 1984,
            "type" : "VEC3"
        },
        {
            "bufferView" : 2,
            "componentType" : 5126,
            "count" : 1984,
            "type" : "VEC2"
        },
        {
            "bufferView" : 3,
            "componentType" : 5123,
            "count" : 2976,
            "type" : "SCALAR"
        }
    ],
    "bufferViews" : [
        {
            "buffer" : 0,
            "byteLength" : 23808,
            "byteOffset" : 0
        },
        {
            "buffer" : 0,
            "byteLength" : 23808,
            "byteOffset" : 23808
        },
        {
            "buffer" : 0,
            "byteLength" : 15872,
            "byteOffset" : 47616
        },
        {
            "buffer" : 0,
            "byteLength" : 5952,
            "byteOffset" : 63488
        }
    ],
    "buffers" : [
        {
            "byteLength" : 69440,
            "uri" : "model.bin"
        }
    ]
}
