{
    "asset" : {
        "copyright" : "Weronika Zak",
        "generator" : "Khronos glTF Blender I/O v1.7.33",
        "version" : "2.0"
    },
    "scene" : 0,
    "scenes" : [
        {
            "name" : "Scene",
            "nodes" : [
                0
            ]
        }
    ],
    "nodes" : [
        {
            "mesh" : 0,
            "name" : "head_grin",
            "translation" : [
                0,
                0.020906278863549232,
                0
            ]
        }
    ],
    "materials" : [
        {
            "doubleSided" : true,
            "name" : "face",
            "pbrMetallicRoughness" : {
                "baseColorFactor" : [
                    0.7758224606513977,
                    0.5775803923606873,
                    0.35640019178390503,
                    1
                ],
                "metallicFactor" : 0,
                "roughnessFactor" : 0.5
            }
        },
        {
            "doubleSided" : true,
            "name" : "face_shadow",
            "pbrMetallicRoughness" : {
                "baseColorFactor" : [
                    0.3864296078681946,
                    0.25818294286727905,
                    0.10461653023958206,
                    1
                ],
                "metallicFactor" : 0,
                "roughnessFactor" : 0.5
            }
        },
        {
            "doubleSided" : true,
            "name" : "fur",
            "pbrMetallicRoughness" : {
                "baseColorFactor" : [
                    0.9130992293357849,
                    0.3094688951969147,
                    0.34191447496414185,
                    1
                ],
                "metallicFactor" : 0,
                "roughnessFactor" : 0.5
            }
        },
        {
            "doubleSided" : true,
            "name" : "teeth.001",
            "pbrMetallicRoughness" : {
                "metallicFactor" : 0,
                "roughnessFactor" : 0.5
            }
        },
        {
            "doubleSided" : true,
            "name" : "gums",
            "pbrMetallicRoughness" : {
                "baseColorFactor" : [
                    0.8000000715255737,
                    0.2870088219642639,
                    0.42097461223602295,
                    1
                ],
                "metallicFactor" : 0,
                "roughnessFactor" : 0.5
            }
        },
        {
            "doubleSided" : true,
            "name" : "teeth",
            "pbrMetallicRoughness" : {
                "baseColorFactor" : [
                    0.800000011920929,
                    0.800000011920929,
                    0.800000011920929,
                    1
                ],
                "metallicFactor" : 0,
                "roughnessFactor" : 0.5
            }
        }
    ],
    "meshes" : [
        {
            "name" : "Sphere.011",
            "primitives" : [
                {
                    "attributes" : {
                        "POSITION" : 0,
                        "NORMAL" : 1,
                        "TEXCOORD_0" : 2
                    },
                    "indices" : 3,
                    "material" : 0
                },
                {
                    "attributes" : {
                        "POSITION" : 4,
                        "NORMAL" : 5,
                        "TEXCOORD_0" : 6
                    },
                    "indices" : 7,
                    "material" : 1
                },
                {
                    "attributes" : {
                        "POSITION" : 8,
                        "NORMAL" : 9,
                        "TEXCOORD_0" : 10
                    },
                    "indices" : 11,
                    "material" : 2
                },
                {
                    "attributes" : {
                        "POSITION" : 12,
                        "NORMAL" : 13,
                        "TEXCOORD_0" : 14
                    },
                    "indices" : 15,
                    "material" : 3
                },
                {
                    "attributes" : {
                        "POSITION" : 16,
                        "NORMAL" : 17,
                        "TEXCOORD_0" : 18
                    },
                    "indices" : 19,
                    "material" : 4
                },
                {
                    "attributes" : {
                        "POSITION" : 20,
                        "NORMAL" : 21,
                        "TEXCOORD_0" : 22
                    },
                    "indices" : 23,
                    "material" : 5
                }
            ]
        }
    ],
    "accessors" : [
        {
            "bufferView" : 0,
            "componentType" : 5126,
            "count" : 2888,
            "max" : [
                0.5325036644935608,
                2.2333121299743652,
                1.0498125553131104
            ],
            "min" : [
                -0.5325036644935608,
                1.1162035465240479,
                0.39020785689353943
            ],
            "type" : "VEC3"
        },
        {
            "bufferView" : 1,
            "componentType" : 5126,
            "count" : 2888,
            "type" : "VEC3"
        },
        {
            "bufferView" : 2,
            "componentType" : 5126,
            "count" : 2888,
            "type" : "VEC2"
        },
        {
            "bufferView" : 3,
            "componentType" : 5123,
            "count" : 4332,
            "type" : "SCALAR"
        },
        {
            "bufferView" : 4,
            "componentType" : 5126,
            "count" : 1464,
            "max" : [
                0.35865840315818787,
                2.2039198875427246,
                1.0566678047180176
            ],
            "min" : [
                -0.35865840315818787,
                1.5179555416107178,
                0.544572651386261
            ],
            "type" : "VEC3"
        },
        {
            "bufferView" : 5,
            "componentType" : 5126,
            "count" : 1464,
            "type" : "VEC3"
        },
        {
            "bufferView" : 6,
            "componentType" : 5126,
            "count" : 1464,
            "type" : "VEC2"
        },
        {
            "bufferView" : 7,
            "componentType" : 5123,
            "count" : 2196,
            "type" : "SCALAR"
        },
        {
            "bufferView" : 8,
            "componentType" : 5126,
            "count" : 3992,
            "max" : [
                0.5503697991371155,
                2.3993022441864014,
                0.8870152235031128
            ],
            "min" : [
                -0.5503697991371155,
                1.0992047786712646,
                -0.2928013205528259
            ],
            "type" : "VEC3"
        },
        {
            "bufferView" : 9,
            "componentType" : 5126,
            "count" : 3992,
            "type" : "VEC3"
        },
        {
            "bufferView" : 10,
            "componentType" : 5126,
            "count" : 3992,
            "type" : "VEC2"
        },
        {
            "bufferView" : 11,
            "componentType" : 5123,
            "count" : 5988,
            "type" : "SCALAR"
        },
        {
            "bufferView" : 12,
            "componentType" : 5126,
            "count" : 856,
            "max" : [
                0.39495447278022766,
                1.493220329284668,
                1.0378806591033936
            ],
            "min" : [
                -0.39495447278022766,
                1.2958372831344604,
                0.6320697069168091
            ],
            "type" : "VEC3"
        },
        {
            "bufferView" : 13,
            "componentType" : 5126,
            "count" : 856,
            "type" : "VEC3"
        },
        {
            "bufferView" : 14,
            "componentType" : 5126,
            "count" : 856,
            "type" : "VEC2"
        },
        {
            "bufferView" : 15,
            "componentType" : 5123,
            "count" : 1284,
            "type" : "SCALAR"
        },
        {
            "bufferView" : 16,
            "componentType" : 5126,
            "count" : 416,
            "max" : [
                0.39453980326652527,
                1.5298265218734741,
                0.993869423866272
            ],
            "min" : [
                -0.3945397734642029,
                1.245120882987976,
                0.2616472840309143
            ],
            "type" : "VEC3"
        },
        {
            "bufferView" : 17,
            "componentType" : 5126,
            "count" : 416,
            "type" : "VEC3"
        },
        {
            "bufferView" : 18,
            "componentType" : 5126,
            "count" : 416,
            "type" : "VEC2"
        },
        {
            "bufferView" : 19,
            "componentType" : 5123,
            "count" : 624,
            "type" : "SCALAR"
        },
        {
            "bufferView" : 20,
            "componentType" : 5126,
            "count" : 384,
            "max" : [
                0.39488136768341064,
                1.4791618585586548,
                0.9938695430755615
            ],
            "min" : [
                -0.39488133788108826,
                1.2852834463119507,
                0.4596208930015564
            ],
            "type" : "VEC3"
        },
        {
            "bufferView" : 21,
            "componentType" : 5126,
            "count" : 384,
            "type" : "VEC3"
        },
        {
            "bufferView" : 22,
            "componentType" : 5126,
            "count" : 384,
            "type" : "VEC2"
        },
        {
            "bufferView" : 23,
            "componentType" : 5123,
            "count" : 576,
            "type" : "SCALAR"
        }
    ],
    "bufferViews" : [
        {
            "buffer" : 0,
            "byteLength" : 34656,
            "byteOffset" : 0
        },
        {
            "buffer" : 0,
            "byteLength" : 34656,
            "byteOffset" : 34656
        },
        {
            "buffer" : 0,
            "byteLength" : 23104,
            "byteOffset" : 69312
        },
        {
            "buffer" : 0,
            "byteLength" : 8664,
            "byteOffset" : 92416
        },
        {
            "buffer" : 0,
            "byteLength" : 17568,
            "byteOffset" : 101080
        },
        {
            "buffer" : 0,
            "byteLength" : 17568,
            "byteOffset" : 118648
        },
        {
            "buffer" : 0,
            "byteLength" : 11712,
            "byteOffset" : 136216
        },
        {
            "buffer" : 0,
            "byteLength" : 4392,
            "byteOffset" : 147928
        },
        {
            "buffer" : 0,
            "byteLength" : 47904,
            "byteOffset" : 152320
        },
        {
            "buffer" : 0,
            "byteLength" : 47904,
            "byteOffset" : 200224
        },
        {
            "buffer" : 0,
            "byteLength" : 31936,
            "byteOffset" : 248128
        },
        {
            "buffer" : 0,
            "byteLength" : 11976,
            "byteOffset" : 280064
        },
        {
            "buffer" : 0,
            "byteLength" : 10272,
            "byteOffset" : 292040
        },
        {
            "buffer" : 0,
            "byteLength" : 10272,
            "byteOffset" : 302312
        },
        {
            "buffer" : 0,
            "byteLength" : 6848,
            "byteOffset" : 312584
        },
        {
            "buffer" : 0,
            "byteLength" : 2568,
            "byteOffset" : 319432
        },
        {
            "buffer" : 0,
            "byteLength" : 4992,
            "byteOffset" : 322000
        },
        {
            "buffer" : 0,
            "byteLength" : 4992,
            "byteOffset" : 326992
        },
        {
            "buffer" : 0,
            "byteLength" : 3328,
            "byteOffset" : 331984
        },
        {
            "buffer" : 0,
            "byteLength" : 1248,
            "byteOffset" : 335312
        },
        {
            "buffer" : 0,
            "byteLength" : 4608,
            "byteOffset" : 336560
        },
        {
            "buffer" : 0,
            "byteLength" : 4608,
            "byteOffset" : 341168
        },
        {
            "buffer" : 0,
            "byteLength" : 3072,
            "byteOffset" : 345776
        },
        {
            "buffer" : 0,
            "byteLength" : 1152,
            "byteOffset" : 348848
        }
    ],
    "buffers" : [
        {
            "byteLength" : 350000,
            "uri" : "model.bin"
        }
    ]
}
